<svg width="26" height="14" viewBox="0 0 26 14" fill="none" xmlns="http://www.w3.org/2000/svg">
<path fill-rule="evenodd" clip-rule="evenodd" d="M12.3362 0.711583C12.4233 0.624276 12.5268 0.555008 12.6406 0.507746C12.7545 0.460484 12.8766 0.436157 13 0.436157C13.1233 0.436157 13.2454 0.460484 13.3593 0.507746C13.4732 0.555008 13.5766 0.624276 13.6637 0.711583L24.9137 11.9616C25.0897 12.1376 25.1886 12.3764 25.1886 12.6253C25.1886 12.8743 25.0897 13.113 24.9137 13.2891C24.7377 13.4651 24.4989 13.564 24.25 13.564C24.001 13.564 23.7622 13.4651 23.5862 13.2891L13 2.70096L2.41371 13.2891C2.23768 13.4651 1.99892 13.564 1.74996 13.564C1.50101 13.564 1.26225 13.4651 1.08621 13.2891C0.910176 13.113 0.811279 12.8743 0.811279 12.6253C0.811279 12.3764 0.910176 12.1376 1.08621 11.9616L12.3362 0.711583Z" fill="black"/>
</svg>
